<svg height="40" viewBox="0 0 199 40" width="199" xmlns="http://www.w3.org/2000/svg" xmlns:xlink="http://www.w3.org/1999/xlink"><mask id="a" fill="#fff"><use fill="#fff" fill-rule="evenodd" xlink:href="#c"/></mask><mask id="b" fill="#fff"><use fill="#fff" fill-rule="evenodd" xlink:href="#d"/></mask><g fill="none" fill-rule="evenodd"><path id="c" d="m140.185 19.363v-19.049h-139.855v19.049z"/><path id="d" d="m39.021.112h-39.02v39.186h39.02z"/><g fill="#ef3c24"><path d="m22.626 11.166h-4.995c.05-2.174.961-3.364 2.55-3.364 1.507 0 2.445 1.342 2.445 3.364zm39.49 1.62-.08 3.011c-.544.884-1.508 1.44-2.47 1.44-1.223 0-1.901-.708-1.901-1.973 0-.76.211-1.29.653-1.72.544-.53 1.534-.785 3.2-.785.208 0 .39.026.597.026zm65.996-1.62h-4.94c.052-2.174.935-3.364 2.521-3.364 1.51 0 2.419 1.342 2.419 3.364zm-115.737 7.64v-17.352h-2.807v7.032h-6.479v-7.032h-2.759v17.352h2.76v-8.068h6.478v8.068zm13.111-5.665v-.532c-.025-2.835-.572-4.377-1.638-5.439-.884-.885-2.184-1.364-3.641-1.364-1.666 0-2.967.556-4.033 1.744-1.016 1.137-1.587 2.706-1.587 4.906 0 4.125 2.263 6.678 5.957 6.678 1.795 0 3.358-.58 4.709-1.668l-1.066-1.619c-.99.785-2.056 1.213-3.252 1.213-1.197 0-2.186-.455-2.81-1.34-.39-.581-.546-1.467-.546-2.379v-.2zm9.158-7.185a3.013 3.013 0 0 0 -1.066-.202c-1.355 0-2.42.785-3.278 2v-.204c0-.76-.209-1.214-.469-1.744l-2.575.655c.312.76.442 1.67.442 3.24v9.105h2.785v-8.5c.101-.682.312-1.01.753-1.417.493-.454 1.117-.556 1.717-.556.338 0 .495.05.806.153zm17.768 12.85v-9.336c0-1.416-.311-2.25-1.014-2.883-.548-.505-1.457-.76-2.395-.76-1.403 0-2.913.711-3.977 1.9-.574-1.215-1.744-1.9-3.073-1.9-1.22 0-2.6.66-3.51 1.595-.078-.607-.26-1.163-.495-1.57l-2.497.634c.363.809.468 1.315.468 3.137v9.182h2.653v-9.385c1.067-.935 1.95-1.315 2.76-1.315 1.117 0 1.455.557 1.455 2.024v8.676h2.68v-9.181c1.091-1.062 2.055-1.569 2.86-1.569.99 0 1.38.533 1.38 1.847v8.904zm13.5-1.164c-.935-.582-1.169-1.087-1.169-2.58 0-.126.025-.253.025-.379l.052-3.77v-.808c0-1.265-.052-1.67-.234-2.201-.493-1.365-1.924-2.098-3.901-2.098-1.171 0-2.342.2-3.513.707-.728.328-1.35.554-2.08 1.037l1.25 1.871c.545-.38.909-.58 1.559-.86.909-.405 1.692-.582 2.393-.582.754 0 1.198.177 1.509.557.287.353.364.836.364 1.72v.708c-.39-.025-.572-.025-.858-.025-4.267 0-6.58 1.517-6.58 4.478 0 .96.311 2.099 1.04 2.73.753.659 1.714 1.038 3.275 1.038 1.146 0 2.004-.278 2.785-.785.286-.226.442-.376.833-.758.286.785.987 1.418 1.82 1.72zm12.252 1.164v-9.434c0-2.354-1.428-3.519-3.482-3.519-1.354 0-2.525.509-3.954 1.697 0-.608-.157-1.165-.47-1.744l-2.523.681c.39.885.44 1.544.44 2.958v9.36h2.734v-9.205c.858-.86 2.105-1.493 3.015-1.493 1.068 0 1.51.505 1.51 2.25v8.45h2.73zm21.202 0-1.533-17.352h-3.799l-3.484 12.849-3.591-12.85h-3.928l-1.665 17.353h2.601l1.223-14.571 4.059 14.57h2.133l4.11-14.317 1.172 14.318h2.703zm5.673 0v-12.978l-2.783.432v12.546zm7.753-.025-.496-1.644c-.077 0-.234.025-.311.025-.52 0-.858-.252-.858-1.24v-11.965c0-1.644 0-2.757-.207-3.643l-2.812.608c.235.987.287 1.896.287 3.693v11.484c0 1.899 1.094 2.985 2.68 2.985.703 0 1.197-.075 1.717-.303zm-7.259-16.417c0-.986-.832-1.821-1.873-1.821-.987 0-1.873.835-1.873 1.821 0 1.011.86 1.82 1.847 1.82 1.041 0 1.9-.809 1.9-1.82zm13.633 16.417-.496-1.644c-.413.075-.7.025-.884-.18-.21-.25-.31-.807-.31-2.02v-10.981c0-1.644 0-2.757-.212-3.643l-2.834.608c.235.987.286 1.896.286 3.693v10.978c0 1.365.26 2.125.599 2.607.441.606 1.222.884 2.132.884.65 0 1.145-.075 1.719-.303zm11.835-5.64v-.532c-.026-2.835-.571-4.377-1.638-5.439-.887-.885-2.21-1.364-3.67-1.364-1.638 0-2.913.556-3.978 1.744-1.044 1.137-1.615 2.706-1.615 4.906 0 4.125 2.29 6.678 5.984 6.678a7.286 7.286 0 0 0 4.683-1.668l-1.064-1.619c-.991.785-2.084 1.213-3.254 1.213-1.223 0-2.184-.455-2.783-1.34-.365-.557-.575-1.519-.575-2.379v-.2zm9.184-7.185c-.313-.103-.627-.202-1.066-.202-1.431 0-2.474.785-3.332 2v-.204c0-.76-.181-1.214-.494-1.744l-2.523.655c.34.76.44 1.67.44 3.24v9.105h2.787v-8.5c.102-.682.336-1.01.78-1.417.494-.454 1.12-.556 1.717-.556.286 0 .494.05.806.153z" mask="url(#a)" transform="translate(57.994 8)"/><path d="m39.021 19.731c0 5.4-1.904 10.008-5.713 13.832-3.805 3.823-8.396 5.735-13.772 5.735-5.374 0-9.974-1.912-13.8-5.735-3.823-3.823-5.736-8.433-5.736-13.832s1.913-10.017 5.736-13.858c3.826-3.84 8.426-5.76 13.8-5.76 5.376 0 9.967 1.92 13.772 5.76 3.809 3.841 5.713 8.46 5.713 13.858m-8.633 10.277v-20.502h-.36c-.45 3.53-1.154 6.54-2.015 9.033-2 6.054-4.825 9.08-8.477 9.08s-6.494-3.026-8.528-9.08c-.86-2.493-1.516-5.503-1.963-9.033h-.362v20.502c3.273-.97 6.892-1.454 10.853-1.454 3.928 0 7.546.484 10.852 1.454" mask="url(#b)"/></g></g></svg>