<svg height="40" viewBox="0 0 40 40" width="40" xmlns="http://www.w3.org/2000/svg" xmlns:xlink="http://www.w3.org/1999/xlink"><mask id="a" fill="#fff"><path d="m39.021.112h-39.02v39.186h39.02z" fill="#fff" fill-rule="evenodd"/></mask><path d="m39.021 19.731c0 5.4-1.904 10.008-5.713 13.832-3.805 3.823-8.396 5.735-13.772 5.735-5.374 0-9.974-1.912-13.8-5.735-3.823-3.823-5.736-8.433-5.736-13.832s1.913-10.017 5.736-13.858c3.826-3.84 8.426-5.76 13.8-5.76 5.376 0 9.967 1.92 13.772 5.76 3.809 3.841 5.713 8.46 5.713 13.858m-8.633 10.277v-20.502h-.36c-.45 3.53-1.154 6.54-2.015 9.033-2 6.054-4.825 9.08-8.477 9.08s-6.494-3.026-8.528-9.08c-.86-2.493-1.516-5.503-1.963-9.033h-.362v20.502c3.273-.97 6.892-1.454 10.853-1.454 3.928 0 7.546.484 10.852 1.454" fill="#acacac" mask="url(#a)"/></svg>